<svg width="63" height="23" viewBox="0 0 63 23" fill="none" xmlns="http://www.w3.org/2000/svg">
<path d="M14.5594 3.42188L5.24688 11.7656L14.5594 19.9219H8.7L1.15313 13.2969C0.684376 12.9115 0.450001 12.401 0.450001 11.7656C0.450001 11.474 0.507292 11.1979 0.621876 10.9375C0.746876 10.6771 0.913542 10.4531 1.12188 10.2656L8.7625 3.42188H14.5594ZM40.7812 0.59375L26.6406 23H22.2812L36.4375 0.59375H40.7812ZM54.2219 3.42188L61.8781 10.2656C62.0865 10.4531 62.2479 10.6771 62.3625 10.9375C62.4875 11.1979 62.55 11.474 62.55 11.7656C62.55 12.0677 62.4875 12.3542 62.3625 12.625C62.2375 12.8854 62.0656 13.1094 61.8469 13.2969L54.2844 19.9219H48.4406L57.7531 11.7656L48.4406 3.42188H54.2219Z" fill="#3200FF"/>
</svg>
